<?xml version="1.0" encoding="UTF-8" standalone="no"?>
<!-- Created with Inkscape (http://www.inkscape.org/) -->

<svg
   xmlns:dc="http://purl.org/dc/elements/1.1/"
   xmlns:cc="http://creativecommons.org/ns#"
   xmlns:rdf="http://www.w3.org/1999/02/22-rdf-syntax-ns#"
   xmlns:svg="http://www.w3.org/2000/svg"
   xmlns="http://www.w3.org/2000/svg"
   xmlns:sodipodi="http://sodipodi.sourceforge.net/DTD/sodipodi-0.dtd"
   xmlns:inkscape="http://www.inkscape.org/namespaces/inkscape"
   width="32"
   height="32"
   viewBox="0 0 8.4666659 8.4666659"
   version="1.1"
   id="svg8"
   inkscape:version="0.92.4 (5da689c313, 2019-01-14)"
   sodipodi:docname="Install.svg">
  <defs
     id="defs2">
    <inkscape:perspective
       sodipodi:type="inkscape:persp3d"
       inkscape:vp_x="0 : 148.49998 : 1"
       inkscape:vp_y="0 : 999.99988 : 0"
       inkscape:vp_z="209.99999 : 148.49998 : 1"
       inkscape:persp3d-origin="104.99999 : 98.999988 : 1"
       id="perspective3713" />
  </defs>
  <sodipodi:namedview
     id="base"
     pagecolor="#ffffff"
     bordercolor="#666666"
     borderopacity="1.0"
     inkscape:pageopacity="0.0"
     inkscape:pageshadow="2"
     inkscape:zoom="22.627417"
     inkscape:cx="11.336266"
     inkscape:cy="18.338497"
     inkscape:document-units="mm"
     inkscape:current-layer="layer1"
     showgrid="false"
     inkscape:window-width="2306"
     inkscape:window-height="1502"
     inkscape:window-x="288"
     inkscape:window-y="360"
     inkscape:window-maximized="0"
     units="px" />
  <metadata
     id="metadata5">
    <rdf:RDF>
      <cc:Work
         rdf:about="">
        <dc:format>image/svg+xml</dc:format>
        <dc:type
           rdf:resource="http://purl.org/dc/dcmitype/StillImage" />
        <dc:title></dc:title>
      </cc:Work>
    </rdf:RDF>
  </metadata>
  <g
     inkscape:label="Layer 1"
     inkscape:groupmode="layer"
     id="layer1"
     transform="translate(0,-288.53334)">
    <rect
       style="fill:#ffffff;stroke:#000000;stroke-width:0.40609998;stroke-linecap:round;stroke-linejoin:bevel;stroke-miterlimit:4;stroke-dasharray:none;stroke-opacity:1"
       id="rect3729-2"
       width="3.9061177"
       height="3.0416756"
       x="4.9461517"
       y="-289.87051"
       transform="matrix(0.86228402,0.50642499,0,-1,0,0)"
       inkscape:export-xdpi="6.7182341"
       inkscape:export-ydpi="6.7182341" />
    <rect
       style="fill:#ffffff;stroke:#000000;stroke-width:0.40609998;stroke-linecap:round;stroke-linejoin:bevel;stroke-miterlimit:4;stroke-dasharray:none;stroke-opacity:1"
       id="rect3729-3-1"
       width="3.9061177"
       height="3.0416756"
       x="1.0400336"
       y="291.83859"
       transform="matrix(0.86228402,-0.50642499,0,1,0,0)"
       inkscape:export-xdpi="6.7182341"
       inkscape:export-ydpi="6.7182341" />
    <g
       id="g4672"
       transform="matrix(0.02071425,0,0,0.02071425,1.5782552,288.75584)"
       inkscape:export-xdpi="6.7182341"
       inkscape:export-ydpi="6.7182341">
      <path
         style="fill:#ffffff"
         id="path8"
         d="M 127.999,0 C 57.423,0 0,57.423 0,128.001 0,198.585 57.423,256.005 127.999,256.005 198.577,256.005 256,198.585 256,128.001 256,57.423 198.577,0 127.999,0"
         inkscape:connector-curvature="0" />
      <path
         style="fill:#91dc47"
         id="path10"
         d="m 123.318,130.303 c -1.15,2.492 -2.419,5.292 -3.733,8.272 -4.645,10.524 -9.789,23.33 -11.668,31.534 -0.675,2.922 -1.093,6.543 -1.085,10.558 0,1.588 0.085,3.257 0.22,4.957 6.567,2.413 13.66,3.74 21.067,3.753 6.743,-0.013 13.221,-1.127 19.284,-3.143 -1.425,-1.303 -2.785,-2.692 -4.023,-4.257 -8.22,-10.482 -12.806,-25.844 -20.062,-51.674"
         inkscape:connector-curvature="0" />
      <path
         style="fill:#91dc47"
         id="path12"
         d="m 92.97,78.225 c -15.699,11.064 -25.972,29.312 -26.011,49.992 0.039,20.371 10.003,38.383 25.307,49.493 3.754,-15.637 13.164,-29.955 27.275,-58.655 -0.838,-2.302 -1.793,-4.822 -2.862,-7.469 -3.909,-9.806 -9.551,-21.194 -14.586,-26.351 -2.567,-2.694 -5.682,-5.022 -9.123,-7.01"
         inkscape:connector-curvature="0" />
      <path
         style="fill:#63b132"
         id="path14"
         d="m 181.394,198.367 c -8.1,-1.015 -14.785,-2.24 -20.633,-4.303 -9.836,4.884 -20.913,7.643 -32.642,7.643 -40.584,0 -73.483,-32.894 -73.488,-73.49 0,-22.027 9.704,-41.773 25.056,-55.24 -4.106,-0.992 -8.388,-1.571 -12.762,-1.563 -21.562,0.203 -44.323,12.136 -53.799,44.363 -0.886,4.691 -0.675,8.238 -0.675,12.442 0,63.885 51.791,115.676 115.671,115.676 39.122,0 73.682,-19.439 94.611,-49.169 -11.32,2.821 -22.206,4.17 -31.528,4.199 -3.494,0 -6.774,-0.187 -9.811,-0.558"
         inkscape:connector-curvature="0" />
      <path
         style="fill:#90b4fe"
         id="path16"
         d="m 159.658,175.953 c 0.714,0.354 2.333,0.932 4.586,1.571 15.157,-11.127 25.007,-29.05 25.046,-49.307 h -0.006 c -0.057,-33.771 -27.386,-61.096 -61.165,-61.163 -6.714,0.013 -13.164,1.121 -19.203,3.122 12.419,14.156 18.391,34.386 24.168,56.515 0.003,0.01 0.008,0.018 0.01,0.026 0.011,0.018 1.848,6.145 5.002,14.274 3.132,8.118 7.594,18.168 12.46,25.492 3.195,4.908 6.709,8.435 9.102,9.47"
         inkscape:connector-curvature="0" />
      <path
         style="fill:#5881d8"
         id="path18"
         d="m 128.122,12.541 c -38.744,0 -73.016,19.073 -94.008,48.318 10.925,-6.842 22.08,-9.31 31.815,-9.222 13.446,0.039 24.017,4.208 29.089,7.06 1.225,0.706 2.388,1.466 3.527,2.247 9.05,-3.986 19.05,-6.215 29.574,-6.215 40.589,0.005 73.493,32.899 73.499,73.488 h -0.006 c 0,20.464 -8.37,38.967 -21.863,52.291 3.312,0.371 6.844,0.602 10.451,0.584 12.811,0.006 26.658,-2.821 37.039,-11.552 6.769,-5.702 12.44,-14.051 15.585,-26.569 0.615,-4.835 0.969,-9.75 0.969,-14.752 0,-63.882 -51.786,-115.678 -115.671,-115.678"
         inkscape:connector-curvature="0" />
    </g>
    <g
       id="g4684"
       transform="matrix(0.06429691,0,0,0.06429691,-4.5678983,288.38736)"
       inkscape:export-xdpi="6.7182341"
       inkscape:export-ydpi="6.7182341">
      <rect
         transform="matrix(0.86228402,-0.50642499,0,1,0,0)"
         y="156.93246"
         x="159.31702"
         height="47.306705"
         width="60.751244"
         id="rect3729-2-0"
         style="fill:#ffffff;stroke:#000000;stroke-width:6.31601048;stroke-linecap:round;stroke-linejoin:bevel;stroke-miterlimit:4;stroke-dasharray:none;stroke-opacity:1" />
      <rect
         transform="matrix(0.86228402,0.50642499,0,-1,0,0)"
         y="-42.874943"
         x="98.565765"
         height="47.306705"
         width="60.751244"
         id="rect3729-3-1-8"
         style="fill:#ffffff;stroke:#000000;stroke-width:6.31601048;stroke-linecap:round;stroke-linejoin:bevel;stroke-miterlimit:4;stroke-dasharray:none;stroke-opacity:1" />
      <rect
         transform="matrix(0.86002863,-0.51024578,0.31857419,0.94789793,0,0)"
         y="139.03346"
         x="108.84789"
         height="29.85239"
         width="60.296326"
         id="rect3729-2-0-4"
         style="fill:#ffffff;stroke:#000000;stroke-width:4.99848986;stroke-linecap:round;stroke-linejoin:bevel;stroke-miterlimit:4;stroke-dasharray:none;stroke-opacity:1" />
      <rect
         transform="matrix(0.8622841,0.50642485,0.32148568,-0.94691444,0,0)"
         y="-25.981262"
         x="97.110924"
         height="29.88339"
         width="60.751255"
         id="rect3729-2-0-4-7"
         style="fill:#ffffff;stroke:#000000;stroke-width:5.01991558;stroke-linecap:round;stroke-linejoin:bevel;stroke-miterlimit:4;stroke-dasharray:none;stroke-opacity:1" />
    </g>
  </g>
</svg>
